<?xml version="1.0" encoding="UTF-8"?>
<!DOCTYPE svg PUBLIC "-//W3C//DTD SVG 1.1//EN" "http://www.w3.org/Graphics/SVG/1.1/DTD/svg11.dtd">
<svg xmlns="http://www.w3.org/2000/svg" version="1.1" width="1000px" height="1080px" style="shape-rendering:geometricPrecision; text-rendering:geometricPrecision; image-rendering:optimizeQuality; fill-rule:evenodd; clip-rule:evenodd" xmlns:xlink="http://www.w3.org/1999/xlink">
<g><path style="opacity:0.996" fill="#000000" d="M 473.5,184.5 C 608.132,179.241 714.965,230.574 794,338.5C 856.119,433.989 871.452,536.656 840,646.5C 804.856,751.645 736.356,826.145 634.5,870C 564.591,897.446 492.924,903.113 419.5,887C 301.736,856.713 218.569,785.88 170,674.5C 142.536,604.592 136.869,532.925 153,459.5C 183.287,341.736 254.12,258.569 365.5,210C 400.359,196.117 436.359,187.617 473.5,184.5 Z"/></g>
<g><path style="opacity:1" fill="#3aa3fd" d="M 503.5,290.5 C 502.504,290.586 501.671,290.252 501,289.5C 500.667,297.833 500.333,306.167 500,314.5C 499.302,315.691 498.469,316.691 497.5,317.5C 494.833,319.833 492.167,322.167 489.5,324.5C 488.504,324.414 487.671,324.748 487,325.5C 486.333,316.167 486.333,306.833 487,297.5C 489.454,295.559 491.287,293.225 492.5,290.5C 496.167,283.833 499.833,283.833 503.5,290.5 Z"/></g>
<g><path style="opacity:1" fill="#468efc" d="M 503.5,290.5 C 509.5,295.833 515.167,301.5 520.5,307.5C 519.5,307.5 518.5,307.5 517.5,307.5C 517.334,316.506 517.5,325.506 518,334.5C 519.802,335.789 520.969,337.456 521.5,339.5C 513.78,331.776 505.78,324.443 497.5,317.5C 498.469,316.691 499.302,315.691 500,314.5C 500.333,306.167 500.667,297.833 501,289.5C 501.671,290.252 502.504,290.586 503.5,290.5 Z"/></g>
<g><path style="opacity:1" fill="#35aefc" d="M 492.5,290.5 C 491.287,293.225 489.454,295.559 487,297.5C 486.333,306.833 486.333,316.167 487,325.5C 487.671,324.748 488.504,324.414 489.5,324.5C 482.5,332.167 475.167,339.5 467.5,346.5C 465.69,337.889 464.856,328.889 465,319.5C 464.329,320.252 463.496,320.586 462.5,320.5C 472.167,310.167 482.167,300.167 492.5,290.5 Z"/></g>
<g><path style="opacity:1" fill="#4e81fd" d="M 520.5,307.5 C 524.5,310.833 528.167,314.5 531.5,318.5C 530.5,318.5 529.5,318.5 528.5,318.5C 528.218,328.219 528.551,337.886 529.5,347.5C 526.5,345.167 523.833,342.5 521.5,339.5C 520.969,337.456 519.802,335.789 518,334.5C 517.5,325.506 517.334,316.506 517.5,307.5C 518.5,307.5 519.5,307.5 520.5,307.5 Z"/></g>
<g><path style="opacity:1" fill="#5674fd" d="M 531.5,318.5 C 535.5,321.833 539.167,325.5 542.5,329.5C 540.749,338.474 539.749,347.808 539.5,357.5C 535.833,354.5 532.5,351.167 529.5,347.5C 528.551,337.886 528.218,328.219 528.5,318.5C 529.5,318.5 530.5,318.5 531.5,318.5 Z"/></g>
<g><path style="opacity:1" fill="#30bcfd" d="M 467.5,346.5 C 461.833,352.833 455.833,358.833 449.5,364.5C 447.823,355.98 446.823,347.147 446.5,338C 449.118,335.894 451.118,333.394 452.5,330.5C 455.5,326.833 458.833,323.5 462.5,320.5C 463.496,320.586 464.329,320.252 465,319.5C 464.856,328.889 465.69,337.889 467.5,346.5 Z"/></g>
<g><path style="opacity:1" fill="#5e68fd" d="M 542.5,329.5 C 546.833,333.167 550.833,337.167 554.5,341.5C 553.504,341.586 552.671,341.252 552,340.5C 551.5,350.161 551.334,359.828 551.5,369.5C 547.167,365.833 543.167,361.833 539.5,357.5C 539.749,347.808 540.749,338.474 542.5,329.5 Z"/></g>
<g><path style="opacity:1" fill="#2ac8fd" d="M 452.5,330.5 C 451.118,333.394 449.118,335.894 446.5,338C 446.823,347.147 447.823,355.98 449.5,364.5C 443.5,371.167 437.167,377.5 430.5,383.5C 428.823,374.98 427.823,366.147 427.5,357C 431.107,353.902 434.107,350.402 436.5,346.5C 441.5,340.833 446.833,335.5 452.5,330.5 Z"/></g>
<g><path style="opacity:1" fill="#655cfd" d="M 554.5,341.5 C 558.167,344.5 561.5,347.833 564.5,351.5C 562.823,360.02 561.823,368.853 561.5,378C 562.252,378.671 562.586,379.504 562.5,380.5C 558.5,377.167 554.833,373.5 551.5,369.5C 551.334,359.828 551.5,350.161 552,340.5C 552.671,341.252 553.504,341.586 554.5,341.5 Z"/></g>
<g><path style="opacity:1" fill="#6c4ffd" d="M 564.5,351.5 C 568.833,355.167 572.833,359.167 576.5,363.5C 575.173,367.783 574.507,372.449 574.5,377.5C 574.549,382.881 574.882,388.215 575.5,393.5C 570.833,389.5 566.5,385.167 562.5,380.5C 562.586,379.504 562.252,378.671 561.5,378C 561.823,368.853 562.823,360.02 564.5,351.5 Z"/></g>
<g><path style="opacity:1" fill="#3aa3fd" d="M 506.5,368.5 C 504.629,368.141 503.129,367.141 502,365.5C 501.667,365.833 501.333,366.167 501,366.5C 500.22,375.881 500.387,385.214 501.5,394.5C 500.399,393.2 499.066,392.7 497.5,393C 494.297,396.371 490.964,399.538 487.5,402.5C 486.361,392.911 486.194,383.244 487,373.5C 488.039,372.756 488.539,371.756 488.5,370.5C 491.479,366.854 494.812,363.521 498.5,360.5C 501.521,362.854 504.188,365.521 506.5,368.5 Z"/></g>
<g><path style="opacity:1" fill="#25d4fd" d="M 436.5,346.5 C 434.107,350.402 431.107,353.902 427.5,357C 427.823,366.147 428.823,374.98 430.5,383.5C 424.833,389.833 418.833,395.833 412.5,401.5C 411.173,397.217 410.507,392.551 410.5,387.5C 410.667,382.833 410.833,378.167 411,373.5C 413.127,371.886 414.627,369.886 415.5,367.5C 422.167,360.167 429.167,353.167 436.5,346.5 Z"/></g>
<g><path style="opacity:1" fill="#773dfd" d="M 576.5,363.5 C 582.167,368.5 587.5,373.833 592.5,379.5C 592.457,389.526 592.457,399.86 592.5,410.5C 586.5,405.167 580.833,399.5 575.5,393.5C 574.882,388.215 574.549,382.881 574.5,377.5C 574.507,372.449 575.173,367.783 576.5,363.5 Z"/></g>
<g><path style="opacity:1" fill="#468ffd" d="M 506.5,368.5 C 512.167,373.5 517.5,378.833 522.5,384.5C 521.06,383.637 519.726,383.637 518.5,384.5C 517.251,393.516 517.251,402.516 518.5,411.5C 512.5,406.167 506.833,400.5 501.5,394.5C 500.387,385.214 500.22,375.881 501,366.5C 501.333,366.167 501.667,365.833 502,365.5C 503.129,367.141 504.629,368.141 506.5,368.5 Z"/></g>
<g><path style="opacity:1" fill="#35affd" d="M 488.5,370.5 C 488.539,371.756 488.039,372.756 487,373.5C 486.194,383.244 486.361,392.911 487.5,402.5C 481.833,408.833 475.833,414.833 469.5,420.5C 467.983,420.511 466.816,421.177 466,422.5C 465.819,413.589 465.319,404.755 464.5,396C 467.118,393.894 469.118,391.394 470.5,388.5C 476.167,382.167 482.167,376.167 488.5,370.5 Z"/></g>
<g><path style="opacity:1" fill="#4e81fd" d="M 522.5,384.5 C 525.5,386.833 528.167,389.5 530.5,392.5C 529.173,396.783 528.507,401.449 528.5,406.5C 528.667,411.167 528.833,415.833 529,420.5C 530.039,421.244 530.539,422.244 530.5,423.5C 526.167,419.833 522.167,415.833 518.5,411.5C 517.251,402.516 517.251,393.516 518.5,384.5C 519.726,383.637 521.06,383.637 522.5,384.5 Z"/></g>
<g><path style="opacity:1" fill="#1fdefa" d="M 415.5,367.5 C 414.627,369.886 413.127,371.886 411,373.5C 410.833,378.167 410.667,382.833 410.5,387.5C 410.507,392.551 411.173,397.217 412.5,401.5C 406.536,409.132 399.869,416.132 392.5,422.5C 390.869,413.514 389.869,404.348 389.5,395C 390.823,394.184 391.489,393.017 391.5,391.5C 399.167,383.167 407.167,375.167 415.5,367.5 Z"/></g>
<g><path style="opacity:1" fill="#5674fd" d="M 530.5,392.5 C 534.833,396.167 538.833,400.167 542.5,404.5C 541.233,403.913 540.233,403.913 539.5,404.5C 540.191,414.499 540.858,424.499 541.5,434.5C 537.5,431.167 533.833,427.5 530.5,423.5C 530.539,422.244 530.039,421.244 529,420.5C 528.833,415.833 528.667,411.167 528.5,406.5C 528.507,401.449 529.173,396.783 530.5,392.5 Z"/></g>
<g><path style="opacity:1" fill="#1aedfc" d="M 391.5,391.5 C 391.489,393.017 390.823,394.184 389.5,395C 389.869,404.348 390.869,413.514 392.5,422.5C 376.858,437.664 373.858,454.998 383.5,474.5C 386.52,471.811 389.52,469.144 392.5,466.5C 392.539,467.756 392.039,468.756 391,469.5C 390.194,479.244 390.361,488.911 391.5,498.5C 376.518,513.779 373.685,531.113 383,550.5C 388.297,557.631 394.13,564.297 400.5,570.5C 400.565,570.938 400.399,571.272 400,571.5C 397,568.5 394,565.5 391,562.5C 390.333,571.833 390.333,581.167 391,590.5C 393.782,592.771 395.949,595.437 397.5,598.5C 391.167,592.833 385.167,586.833 379.5,580.5C 377.612,577.101 375.112,574.101 372,571.5C 371.169,518.596 371.336,465.763 372.5,413C 371.906,412.536 371.239,412.369 370.5,412.5C 377.167,405.167 384.167,398.167 391.5,391.5 Z"/></g>
<g><path style="opacity:1" fill="#30bcfe" d="M 470.5,388.5 C 469.118,391.394 467.118,393.894 464.5,396C 465.319,404.755 465.819,413.589 466,422.5C 466.816,421.177 467.983,420.511 469.5,420.5C 463.833,426.833 457.833,432.833 451.5,438.5C 449.983,438.511 448.816,439.177 448,440.5C 447.819,431.589 447.319,422.755 446.5,414C 449.118,411.894 451.118,409.394 452.5,406.5C 458.167,400.167 464.167,394.167 470.5,388.5 Z"/></g>
<g><path style="opacity:1" fill="#891efd" d="M 592.5,379.5 C 604.167,390.5 615.5,401.833 626.5,413.5C 625.167,439.158 624.5,465.158 624.5,491.5C 624.667,517.5 624.833,543.5 625,569.5C 625.278,570.416 625.778,571.082 626.5,571.5C 621.5,577.167 616.167,582.5 610.5,587.5C 609.173,583.049 608.506,578.216 608.5,573C 608.547,567.452 608.88,561.952 609.5,556.5C 619.113,542.832 620.946,528.166 615,512.5C 614.311,511.643 613.478,510.977 612.5,510.5C 609.48,513.189 606.48,515.856 603.5,518.5C 602.506,508.681 602.173,498.681 602.5,488.5C 619.863,471.899 623.029,452.899 612,431.5C 605.662,424.329 599.162,417.329 592.5,410.5C 592.457,399.86 592.457,389.526 592.5,379.5 Z"/></g>
<g><path style="opacity:1" fill="#5e68fd" d="M 542.5,404.5 C 547.167,408.5 551.5,412.833 555.5,417.5C 553.983,417.489 552.816,416.823 552,415.5C 551.217,425.547 551.383,435.547 552.5,445.5C 548.5,442.167 544.833,438.5 541.5,434.5C 540.858,424.499 540.191,414.499 539.5,404.5C 540.233,403.913 541.233,403.913 542.5,404.5 Z"/></g>
<g><path style="opacity:1" fill="#16f7fc" d="M 370.5,412.5 C 371.239,412.369 371.906,412.536 372.5,413C 371.336,465.763 371.169,518.596 372,571.5C 375.112,574.101 377.612,577.101 379.5,580.5C 359.169,562.674 351.669,540.341 357,513.5C 359.043,505.581 362.543,498.414 367.5,492C 354.551,472.472 352.051,451.638 360,429.5C 362.509,423.135 366.009,417.468 370.5,412.5 Z"/></g>
<g><path style="opacity:1" fill="#930cfc" d="M 626.5,413.5 C 642.661,433.82 645.828,456.153 636,480.5C 634.213,484.577 632.046,488.41 629.5,492C 646.337,519.244 645.337,545.744 626.5,571.5C 625.778,571.082 625.278,570.416 625,569.5C 624.833,543.5 624.667,517.5 624.5,491.5C 624.5,465.158 625.167,439.158 626.5,413.5 Z"/></g>
<g><path style="opacity:1" fill="#2ac8fe" d="M 452.5,406.5 C 451.118,409.394 449.118,411.894 446.5,414C 447.319,422.755 447.819,431.589 448,440.5C 448.816,439.177 449.983,438.511 451.5,438.5C 446.5,444.167 441.167,449.5 435.5,454.5C 435.565,454.062 435.399,453.728 435,453.5C 433,455.5 431,457.5 429,459.5C 428.819,450.589 428.319,441.755 427.5,433C 430.777,430.234 433.443,427.067 435.5,423.5C 440.833,417.5 446.5,411.833 452.5,406.5 Z"/></g>
<g><path style="opacity:1" fill="#655bfd" d="M 555.5,417.5 C 559.5,420.833 563.167,424.5 566.5,428.5C 564.983,428.489 563.816,427.823 563,426.5C 562.217,436.547 562.383,446.547 563.5,456.5C 559.5,453.167 555.833,449.5 552.5,445.5C 551.383,435.547 551.217,425.547 552,415.5C 552.816,416.823 553.983,417.489 555.5,417.5 Z"/></g>
<g><path style="opacity:1" fill="#6c4ffd" d="M 566.5,428.5 C 570.5,431.833 574.167,435.5 577.5,439.5C 576.504,439.414 575.671,439.748 575,440.5C 574.22,449.881 574.387,459.214 575.5,468.5C 571.167,464.833 567.167,460.833 563.5,456.5C 562.383,446.547 562.217,436.547 563,426.5C 563.816,427.823 564.983,428.489 566.5,428.5 Z"/></g>
<g><path style="opacity:1" fill="#25d5fe" d="M 435.5,423.5 C 433.443,427.067 430.777,430.234 427.5,433C 428.319,441.755 428.819,450.589 429,459.5C 431,457.5 433,455.5 435,453.5C 435.399,453.728 435.565,454.062 435.5,454.5C 430.5,460.167 425.167,465.5 419.5,470.5C 416.269,472.22 413.436,474.553 411,477.5C 410.333,468.167 410.333,458.833 411,449.5C 413.127,447.886 414.627,445.886 415.5,443.5C 421.833,436.5 428.5,429.833 435.5,423.5 Z"/></g>
<g><path style="opacity:1" fill="#783bfb" d="M 577.5,439.5 C 586.812,448.146 595.812,457.146 604.5,466.5C 601.314,473.355 596.648,479.022 590.5,483.5C 585.146,478.812 580.146,473.812 575.5,468.5C 574.387,459.214 574.22,449.881 575,440.5C 575.671,439.748 576.504,439.414 577.5,439.5 Z"/></g>
<g><path style="opacity:1" fill="#1fe2fe" d="M 415.5,443.5 C 414.627,445.886 413.127,447.886 411,449.5C 410.333,458.833 410.333,468.167 411,477.5C 413.436,474.553 416.269,472.22 419.5,470.5C 410.5,480.167 401.167,489.5 391.5,498.5C 390.361,488.911 390.194,479.244 391,469.5C 392.039,468.756 392.539,467.756 392.5,466.5C 399.833,458.5 407.5,450.833 415.5,443.5 Z"/></g>
<g><path style="opacity:1" fill="#20d2f0" d="M 436.5,530.5 C 436.565,530.938 436.399,531.272 436,531.5C 434.296,529.627 432.463,527.96 430.5,526.5C 424.203,519.702 417.703,513.035 411,506.5C 410.806,515.548 410.306,524.548 409.5,533.5C 415.582,539.575 421.249,545.909 426.5,552.5C 415.202,541.702 404.035,530.702 393,519.5C 392.541,516.07 393.541,513.07 396,510.5C 399.349,506.984 402.849,503.651 406.5,500.5C 416.854,510.188 426.854,520.188 436.5,530.5 Z"/></g>
<g><path style="opacity:1" fill="#7b37fd" d="M 602.5,488.5 C 602.173,498.681 602.506,508.681 603.5,518.5C 598.242,524.425 592.575,530.092 586.5,535.5C 585.883,535.389 585.383,535.056 585,534.5C 583.971,524.369 584.471,514.369 586.5,504.5C 591.5,498.833 596.833,493.5 602.5,488.5 Z"/></g>
<g><path style="opacity:1" fill="#020004" d="M 609.5,556.5 C 603.833,561.5 598.5,566.833 593.5,572.5C 584.724,580.699 576.391,589.365 568.5,598.5C 563.806,601.194 560.139,604.861 557.5,609.5C 554.925,610.568 552.758,612.235 551,614.5C 550.283,613.956 549.783,613.289 549.5,612.5C 545.083,602.404 544.416,592.07 547.5,581.5C 551.191,572.125 556.858,564.125 564.5,557.5C 568.833,553.833 572.833,549.833 576.5,545.5C 580.167,542.5 583.5,539.167 586.5,535.5C 592.575,530.092 598.242,524.425 603.5,518.5C 606.48,515.856 609.48,513.189 612.5,510.5C 613.478,510.977 614.311,511.643 615,512.5C 620.946,528.166 619.113,542.832 609.5,556.5 Z"/></g>
<g><path style="opacity:1" fill="#7245fd" d="M 586.5,504.5 C 584.471,514.369 583.971,524.369 585,534.5C 585.383,535.056 585.883,535.389 586.5,535.5C 583.5,539.167 580.167,542.5 576.5,545.5C 575.173,541.217 574.507,536.551 574.5,531.5C 574.549,526.119 574.882,520.785 575.5,515.5C 578.833,511.5 582.5,507.833 586.5,504.5 Z"/></g>
<g><path style="opacity:1" fill="#26d3fe" d="M 430.5,526.5 C 428.803,535.185 427.803,544.185 427.5,553.5C 426.833,553.5 426.5,553.167 426.5,552.5C 421.249,545.909 415.582,539.575 409.5,533.5C 410.306,524.548 410.806,515.548 411,506.5C 417.703,513.035 424.203,519.702 430.5,526.5 Z"/></g>
<g><path style="opacity:1" fill="#6b51fd" d="M 575.5,515.5 C 574.882,520.785 574.549,526.119 574.5,531.5C 574.507,536.551 575.173,541.217 576.5,545.5C 572.833,549.833 568.833,553.833 564.5,557.5C 564.19,556.262 563.69,556.262 563,557.5C 562.819,548.589 562.319,539.755 561.5,531C 563.464,529.549 564.797,527.716 565.5,525.5C 568.5,521.833 571.833,518.5 575.5,515.5 Z"/></g>
<g><path style="opacity:1" fill="#2bc3fa" d="M 430.5,526.5 C 432.463,527.96 434.296,529.627 436,531.5C 436.399,531.272 436.565,530.938 436.5,530.5C 443.891,536.889 450.557,543.889 456.5,551.5C 453.536,549.038 450.703,546.371 448,543.5C 447.82,553.41 447.32,563.244 446.5,573C 447.328,573.915 448.328,574.581 449.5,575C 449.043,575.414 448.709,575.914 448.5,576.5C 450.163,579.656 451.33,582.989 452,586.5C 452.844,592.92 452.677,597.253 451.5,599.5C 452.32,589.779 450.153,580.779 445,572.5C 439.329,565.996 433.495,559.663 427.5,553.5C 427.803,544.185 428.803,535.185 430.5,526.5 Z"/></g>
<g><path style="opacity:1" fill="#6063fd" d="M 565.5,525.5 C 564.797,527.716 563.464,529.549 561.5,531C 562.319,539.755 562.819,548.589 563,557.5C 563.69,556.262 564.19,556.262 564.5,557.5C 556.858,564.125 551.191,572.125 547.5,581.5C 546.069,581.881 545.236,582.881 545,584.5C 544.333,572.167 544.333,559.833 545,547.5C 546.481,546.529 547.315,545.196 547.5,543.5C 553.167,537.167 559.167,531.167 565.5,525.5 Z"/></g>
<g><path style="opacity:1" fill="#2ebefd" d="M 456.5,551.5 C 458.5,552.833 460.167,554.5 461.5,556.5C 459.983,556.489 458.816,555.823 458,554.5C 457.333,581.167 457.333,607.833 458,634.5C 458.838,633.001 459.671,632.668 460.5,633.5C 456.578,638.928 452.078,643.928 447,648.5C 445.955,647.627 445.122,646.627 444.5,645.5C 443.457,642.944 441.79,640.777 439.5,639C 440.319,630.245 440.819,621.411 441,612.5C 441.838,613.999 442.671,614.332 443.5,613.5C 444.575,614.562 445.575,614.562 446.5,613.5C 448.796,608.936 450.463,604.269 451.5,599.5C 452.677,597.253 452.844,592.92 452,586.5C 451.33,582.989 450.163,579.656 448.5,576.5C 448.709,575.914 449.043,575.414 449.5,575C 448.328,574.581 447.328,573.915 446.5,573C 447.32,563.244 447.82,553.41 448,543.5C 450.703,546.371 453.536,549.038 456.5,551.5 Z"/></g>
<g><path style="opacity:1" fill="#5870fd" d="M 547.5,543.5 C 547.315,545.196 546.481,546.529 545,547.5C 544.333,559.833 544.333,572.167 545,584.5C 545.236,582.881 546.069,581.881 547.5,581.5C 544.416,592.07 545.083,602.404 549.5,612.5C 547.041,610.948 545.541,608.615 545,605.5C 544.205,618.212 544.372,630.879 545.5,643.5C 541.434,640.437 538.101,636.771 535.5,632.5C 534.505,607.239 534.172,582.239 534.5,557.5C 538.127,552.206 542.46,547.539 547.5,543.5 Z"/></g>
<g><path style="opacity:1" fill="#32b5fd" d="M 461.5,556.5 C 473.756,573.874 476.923,592.874 471,613.5C 468.775,620.955 465.275,627.622 460.5,633.5C 459.671,632.668 458.838,633.001 458,634.5C 457.333,607.833 457.333,581.167 458,554.5C 458.816,555.823 459.983,556.489 461.5,556.5 Z"/></g>
<g><path style="opacity:1" fill="#7e2df9" d="M 609.5,556.5 C 608.88,561.952 608.547,567.452 608.5,573C 608.506,578.216 609.173,583.049 610.5,587.5C 605.167,593.5 599.5,599.167 593.5,604.5C 592.203,593.961 592.203,583.295 593.5,572.5C 598.5,566.833 603.833,561.5 609.5,556.5 Z"/></g>
<g><path style="opacity:1" fill="#21dffe" d="M 400.5,570.5 C 407.167,576.5 413.5,582.833 419.5,589.5C 416.269,587.78 413.436,585.447 411,582.5C 410.333,591.833 410.333,601.167 411,610.5C 413.127,612.114 414.627,614.114 415.5,616.5C 409.167,610.833 403.167,604.833 397.5,598.5C 395.949,595.437 393.782,592.771 391,590.5C 390.333,581.167 390.333,571.833 391,562.5C 394,565.5 397,568.5 400,571.5C 400.399,571.272 400.565,570.938 400.5,570.5 Z"/></g>
<g><path style="opacity:1" fill="#507af9" d="M 534.5,557.5 C 534.172,582.239 534.505,607.239 535.5,632.5C 523.122,615.626 519.622,596.959 525,576.5C 527.143,569.548 530.309,563.214 534.5,557.5 Z"/></g>
<g><path style="opacity:1" fill="#7343fc" d="M 593.5,572.5 C 592.203,583.295 592.203,593.961 593.5,604.5C 586.167,612.5 578.5,620.167 570.5,627.5C 568.527,618.225 567.86,608.558 568.5,598.5C 576.391,589.365 584.724,580.699 593.5,572.5 Z"/></g>
<g><path style="opacity:1" fill="#27d0fe" d="M 419.5,589.5 C 427.833,597.167 435.833,605.167 443.5,613.5C 442.671,614.332 441.838,613.999 441,612.5C 440.819,621.411 440.319,630.245 439.5,639C 441.79,640.777 443.457,642.944 444.5,645.5C 434.5,636.167 424.833,626.5 415.5,616.5C 414.627,614.114 413.127,612.114 411,610.5C 410.333,601.167 410.333,591.833 411,582.5C 413.436,585.447 416.269,587.78 419.5,589.5 Z"/></g>
<g><path style="opacity:1" fill="#6657fb" d="M 568.5,598.5 C 567.86,608.558 568.527,618.225 570.5,627.5C 567.167,631.5 563.5,635.167 559.5,638.5C 557.527,629.225 556.86,619.558 557.5,609.5C 560.139,604.861 563.806,601.194 568.5,598.5 Z"/></g>
<g><path style="opacity:1" fill="#5f64fb" d="M 549.5,612.5 C 549.783,613.289 550.283,613.956 551,614.5C 552.758,612.235 554.925,610.568 557.5,609.5C 556.86,619.558 557.527,629.225 559.5,638.5C 556.521,642.146 553.188,645.479 549.5,648.5C 547.929,647.025 546.595,645.358 545.5,643.5C 544.372,630.879 544.205,618.212 545,605.5C 545.541,608.615 547.041,610.948 549.5,612.5 Z"/></g>
<g><path style="opacity:1" fill="#8a0eee" d="M 366.5,708.5 C 372.509,708.334 378.509,708.501 384.5,709C 395.387,713.068 398.553,720.568 394,731.5C 387.509,738.906 379.342,741.572 369.5,739.5C 369.5,746.833 369.5,754.167 369.5,761.5C 368.167,761.5 366.833,761.5 365.5,761.5C 365.181,743.757 365.514,726.09 366.5,708.5 Z"/></g>
<g><path style="opacity:1" fill="#3c94f5" d="M 504.5,709.5 C 506.288,709.215 507.955,709.548 509.5,710.5C 508.757,711.182 508.091,711.849 507.5,712.5C 507.5,720.167 507.5,727.833 507.5,735.5C 510.455,736.159 513.455,736.492 516.5,736.5C 520.373,736.334 521.04,737.334 518.5,739.5C 514.833,739.5 511.167,739.5 507.5,739.5C 507.5,746.833 507.5,754.167 507.5,761.5C 506.167,761.5 504.833,761.5 503.5,761.5C 503.17,743.992 503.503,726.659 504.5,709.5 Z"/></g>
<g><path style="opacity:1" fill="#000001" d="M 373.5,711.5 C 387.083,710.569 392.583,716.569 390,729.5C 389.215,731.286 388.049,732.786 386.5,734C 380.947,736.262 375.28,736.762 369.5,735.5C 369.5,727.833 369.5,720.167 369.5,712.5C 371.099,712.768 372.432,712.434 373.5,711.5 Z"/></g>
<g><path style="opacity:1" fill="#000102" d="M 516.5,736.5 C 513.455,736.492 510.455,736.159 507.5,735.5C 507.5,727.833 507.5,720.167 507.5,712.5C 514.135,710.939 520.469,711.772 526.5,715C 530.893,721.801 530.226,728.134 524.5,734C 521.69,734.782 519.023,735.616 516.5,736.5 Z"/></g>
<g><path style="opacity:1" fill="#309ee9" d="M 504.5,709.5 C 510.319,708.347 516.319,708.181 522.5,709C 533.616,713.672 536.449,721.505 531,732.5C 527.624,736.271 523.458,738.604 518.5,739.5C 521.04,737.334 520.373,736.334 516.5,736.5C 519.023,735.616 521.69,734.782 524.5,734C 530.226,728.134 530.893,721.801 526.5,715C 520.469,711.772 514.135,710.939 507.5,712.5C 508.091,711.849 508.757,711.182 509.5,710.5C 507.955,709.548 506.288,709.215 504.5,709.5 Z"/></g>
<g><path style="opacity:1" fill="#487bf1" d="M 490.5,722.5 C 492.167,722.5 493.833,722.5 495.5,722.5C 495.5,723.833 495.5,725.167 495.5,726.5C 490.081,725.959 486.581,728.293 485,733.5C 483.647,742.775 483.147,752.109 483.5,761.5C 482.167,761.5 480.833,761.5 479.5,761.5C 479.5,748.833 479.5,736.167 479.5,723.5C 480.833,723.5 482.167,723.5 483.5,723.5C 483.34,725.199 483.506,726.866 484,728.5C 486.063,726.266 488.229,724.266 490.5,722.5 Z"/></g>
<g><path style="opacity:1" fill="#2ab1ee" d="M 552.5,722.5 C 554.167,722.5 555.833,722.5 557.5,722.5C 557.5,723.833 557.5,725.167 557.5,726.5C 552.081,725.959 548.581,728.293 547,733.5C 545.583,742.752 545.083,752.085 545.5,761.5C 544.167,761.5 542.833,761.5 541.5,761.5C 541.5,748.833 541.5,736.167 541.5,723.5C 542.833,723.5 544.167,723.5 545.5,723.5C 545.34,725.199 545.506,726.866 546,728.5C 548.063,726.266 550.229,724.266 552.5,722.5 Z"/></g>
<g><path style="opacity:1" fill="#17dbeb" d="M 614.5,722.5 C 625.158,720.908 631.991,725.241 635,735.5C 637.732,747.335 633.899,756.169 623.5,762C 616.412,763.888 610.578,762.055 606,756.5C 605.5,763.492 605.334,770.492 605.5,777.5C 604.167,777.5 602.833,777.5 601.5,777.5C 601.5,759.5 601.5,741.5 601.5,723.5C 602.833,723.5 604.167,723.5 605.5,723.5C 605.338,725.527 605.505,727.527 606,729.5C 608.217,726.323 611.05,723.989 614.5,722.5 Z"/></g>
<g><path style="opacity:1" fill="#000002" d="M 456.5,725.5 C 463.2,727.509 466.533,732.176 466.5,739.5C 463.167,739.5 459.833,739.5 456.5,739.5C 441.395,742.894 438.728,739.06 448.5,728C 451.022,726.659 453.689,725.826 456.5,725.5 Z"/></g>
<g><path style="opacity:1" fill="#000203" d="M 575.5,725.5 C 584.646,725.647 588.979,730.313 588.5,739.5C 580.833,739.5 573.167,739.5 565.5,739.5C 565.319,732.587 568.652,727.92 575.5,725.5 Z"/></g>
<g><path style="opacity:1" fill="#000202" d="M 616.5,725.5 C 626.511,726.348 631.511,731.848 631.5,742C 630.352,757.81 622.852,762.31 609,755.5C 604.75,747.721 604.417,739.721 608,731.5C 610.322,728.605 613.155,726.605 616.5,725.5 Z"/></g>
<g><path style="opacity:1" fill="#5c51e8" d="M 457.5,722.5 C 459.129,724.196 458.796,725.196 456.5,725.5C 453.689,725.826 451.022,726.659 448.5,728C 438.728,739.06 441.395,742.894 456.5,739.5C 456.5,740.5 456.5,741.5 456.5,742.5C 451.833,742.5 447.167,742.5 442.5,742.5C 442.245,752.365 446.912,758.031 456.5,759.5C 460.513,758.831 464.513,758.164 468.5,757.5C 468.78,760.388 467.447,761.888 464.5,762C 445.188,765.02 436.688,756.854 439,737.5C 441.174,727.487 447.34,722.487 457.5,722.5 Z"/></g>
<g><path style="opacity:1" fill="#722de7" d="M 412.5,722.5 C 426.782,721.448 433.448,728.115 432.5,742.5C 423.167,742.5 413.833,742.5 404.5,742.5C 404.245,752.365 408.912,758.031 418.5,759.5C 422.489,758.702 426.489,758.035 430.5,757.5C 430.78,760.388 429.447,761.888 426.5,762C 405.234,764.023 397.067,754.523 402,733.5C 404.357,728.645 407.857,724.979 412.5,722.5 Z"/></g>
<g><path style="opacity:1" fill="#000002" d="M 415.5,725.5 C 424.366,725.871 428.699,730.538 428.5,739.5C 420.493,739.666 412.493,739.5 404.5,739C 405.501,732.18 409.167,727.68 415.5,725.5 Z"/></g>
<g><path style="opacity:1" fill="#20bae4" d="M 576.5,722.5 C 575.602,723.158 574.602,723.824 573.5,724.5C 573.957,725.298 574.624,725.631 575.5,725.5C 568.652,727.92 565.319,732.587 565.5,739.5C 565.5,740.5 565.5,741.5 565.5,742.5C 564.214,752.204 568.547,757.871 578.5,759.5C 582.513,758.831 586.513,758.164 590.5,757.5C 590.78,760.388 589.447,761.888 586.5,762C 570.899,765.201 562.232,759.034 560.5,743.5C 560.029,735.945 562.696,729.778 568.5,725C 570.909,723.293 573.575,722.46 576.5,722.5 Z"/></g>
<g><path style="opacity:1" fill="#5267ef" d="M 457.5,722.5 C 463.97,723.465 468.136,727.132 470,733.5C 470.498,736.482 470.665,739.482 470.5,742.5C 465.833,742.5 461.167,742.5 456.5,742.5C 456.5,741.5 456.5,740.5 456.5,739.5C 459.833,739.5 463.167,739.5 466.5,739.5C 466.533,732.176 463.2,727.509 456.5,725.5C 458.796,725.196 459.129,724.196 457.5,722.5 Z"/></g>
<g><path style="opacity:1" fill="#1fd3f5" d="M 576.5,722.5 C 584.522,722.098 589.689,725.764 592,733.5C 592.498,736.482 592.665,739.482 592.5,742.5C 583.5,742.5 574.5,742.5 565.5,742.5C 565.5,741.5 565.5,740.5 565.5,739.5C 573.167,739.5 580.833,739.5 588.5,739.5C 588.979,730.313 584.646,725.647 575.5,725.5C 574.624,725.631 573.957,725.298 573.5,724.5C 574.602,723.824 575.602,723.158 576.5,722.5 Z"/></g>
</svg>
